<svg width="34" height="34" viewBox="0 0 34 34" fill="none" xmlns="http://www.w3.org/2000/svg">
<path d="M1.16676 11.7664L16.1668 20.4331C16.4201 20.5793 16.7075 20.6563 17.0001 20.6563C17.2927 20.6563 17.5801 20.5793 17.8334 20.4331L32.8334 11.7664C33.0853 11.621 33.2948 11.4122 33.441 11.1607C33.5872 10.9092 33.665 10.6239 33.6668 10.3331C33.6679 10.0394 33.5915 9.7506 33.4451 9.49597C33.2988 9.24134 33.0878 9.0299 32.8334 8.88306L17.8334 0.233057C17.5801 0.0867762 17.2927 0.00976562 17.0001 0.00976562C16.7075 0.00976562 16.4201 0.0867762 16.1668 0.233057L1.16676 8.88306C0.912418 9.0299 0.701394 9.24134 0.555055 9.49597C0.408716 9.7506 0.332259 10.0394 0.333425 10.3331C0.33518 10.6239 0.413023 10.9092 0.559216 11.1607C0.705409 11.4122 0.914862 11.621 1.16676 11.7664V11.7664ZM17.0001 3.66639L28.6668 10.3331L17.0001 16.9997L5.33342 10.3331L17.0001 3.66639ZM31.1668 15.6164L17.0001 23.6664L2.83342 15.5497C2.6432 15.4395 2.43306 15.368 2.21509 15.3394C1.99713 15.3108 1.77565 15.3255 1.56342 15.3829C1.35119 15.4402 1.15239 15.5389 0.978476 15.6734C0.804565 15.8079 0.658975 15.9754 0.550092 16.1664C0.332804 16.5491 0.275694 17.0022 0.391222 17.4268C0.50675 17.8515 0.785539 18.2132 1.16676 18.4331L16.1668 27.0997C16.4201 27.246 16.7075 27.323 17.0001 27.323C17.2927 27.323 17.5801 27.246 17.8334 27.0997L32.8334 18.4331C33.2146 18.2132 33.4934 17.8515 33.609 17.4268C33.7245 17.0022 33.6674 16.5491 33.4501 16.1664C33.3412 15.9754 33.1956 15.8079 33.0217 15.6734C32.8478 15.5389 32.649 15.4402 32.4368 15.3829C32.2245 15.3255 32.0031 15.3108 31.7851 15.3394C31.5671 15.368 31.357 15.4395 31.1668 15.5497V15.6164ZM31.1668 22.2831L17.0001 30.3331L2.83342 22.2164C2.6432 22.1062 2.43306 22.0347 2.21509 22.0061C1.99713 21.9774 1.77565 21.9922 1.56342 22.0495C1.35119 22.1068 1.15239 22.2056 0.978476 22.3401C0.804565 22.4745 0.658975 22.6421 0.550092 22.8331C0.332804 23.2158 0.275694 23.6689 0.391222 24.0935C0.50675 24.5181 0.785539 24.8799 1.16676 25.0997L16.1668 33.7664C16.4201 33.9127 16.7075 33.9897 17.0001 33.9897C17.2927 33.9897 17.5801 33.9127 17.8334 33.7664L32.8334 25.0997C33.2146 24.8799 33.4934 24.5181 33.609 24.0935C33.7245 23.6689 33.6674 23.2158 33.4501 22.8331C33.3412 22.6421 33.1956 22.4745 33.0217 22.3401C32.8478 22.2056 32.649 22.1068 32.4368 22.0495C32.2245 21.9922 32.0031 21.9774 31.7851 22.0061C31.5671 22.0347 31.357 22.1062 31.1668 22.2164V22.2831Z" fill="white"/>
</svg>
