<svg width="72" height="72" viewBox="0 0 72 72" fill="none" xmlns="http://www.w3.org/2000/svg">
<rect width="72" height="72" rx="36" fill="#C4C4C4"/>
<path d="M25.7401 50C23.0551 50 20.792 49.4231 18.9508 48.2692C17.1097 47.0897 15.7927 45.4487 15 43.3462L20.2933 40.2692C21.3674 42.7564 23.2469 44 25.9319 44C28.3612 44 29.5759 43.2692 29.5759 41.8077C29.5759 40.9872 29.1795 40.3718 28.3868 39.9615C27.5685 39.4744 26.1109 38.9487 24.014 38.3846C21.866 37.7949 20.0504 36.9487 18.5673 35.8462C16.9307 34.5128 16.1124 32.6282 16.1124 30.1923C16.1124 27.7051 16.9946 25.7179 18.759 24.2308C20.5491 22.7436 22.6715 22 25.1264 22C27.3256 22 29.269 22.5256 30.9567 23.5769C32.6445 24.6026 33.9742 26.1026 34.9459 28.0769L29.7677 31.1154C28.7959 29.0385 27.2488 28 25.1264 28C24.2314 28 23.5282 28.1923 23.0167 28.5769C22.5053 28.9615 22.2496 29.4487 22.2496 30.0385C22.2496 30.6795 22.5564 31.2564 23.1702 31.7692C23.835 32.2821 25.1392 32.8205 27.0826 33.3846L29.5759 34.1923C30.2152 34.3974 30.9567 34.7436 31.8006 35.2308C32.7212 35.6923 33.4116 36.1923 33.8719 36.7308C35.0993 38.0641 35.7131 39.7308 35.7131 41.7308C35.7131 44.2692 34.7925 46.2949 32.9513 47.8077C31.1102 49.2692 28.7064 50 25.7401 50Z" fill="#E9E9E9"/>
<path d="M49.8271 29.6923C51.8984 29.6923 53.599 30.3974 54.9287 31.8077C56.3096 33.2436 57 35.1923 57 37.6538V49.4615H51.2464V38.5C51.2464 37.3974 50.9395 36.5385 50.3258 35.9231C49.7121 35.3077 48.9066 35 47.9093 35C46.7841 35 45.9019 35.3462 45.2626 36.0385C44.6489 36.7051 44.342 37.6795 44.342 38.9615V49.4615H38.5884V22.5385H44.342V32.0385C45.4927 30.4744 47.3211 29.6923 49.8271 29.6923Z" fill="#E9E9E9"/>
</svg>
