<svg width="160" height="24" viewBox="0 0 160 24" fill="none" xmlns="http://www.w3.org/2000/svg">
<path d="M0.600098 12V24H2.75696H4.93108L4.87931 15.2977C4.8448 10.516 4.86206 6.59542 4.91382 6.59542C4.96559 6.61374 6.93265 9.54504 9.31383 13.1176C11.6777 16.6901 13.6621 19.658 13.7311 19.713C13.8001 19.7496 15.8189 16.8366 18.2001 13.2458C20.5813 9.63664 22.6001 6.6687 22.6519 6.63206C22.7209 6.61374 22.7554 10.516 22.7209 15.2977L22.6864 24H24.8432H27.0001V12V-7.82311e-08H24.6017H22.186L18.0793 6.17405C15.8189 9.56336 13.9036 12.3664 13.8001 12.3847C13.7138 12.4214 11.7813 9.63664 9.50363 6.22901L5.39696 -7.82311e-08H2.99853H0.600098V12Z" fill="white"/>
<path d="M32 12V24H40.1H48.2V22.1679V20.3359H42.1463H36.0926V17.0382V13.7405H41.1232H46.1537V11.9084V10.0763H41.1232H36.0926V6.87023V3.66412H42.0611H48.0295V1.83206V-7.82311e-08H40.0147H32V12Z" fill="white"/>
<path d="M63.1602 0.171288C59.2688 0.933702 56.0459 3.37689 54.3488 6.84242C53.5259 8.50587 53.2002 9.97871 53.2002 12.0407C53.2002 15.1423 54.2116 17.7068 56.3202 19.9941C60.6745 24.7072 67.5659 25.3136 73.3945 21.5362L74.8002 20.6005V15.6622V10.7238H70.4288H66.0573V12.4566V14.1893H68.4573H70.8573V16.4419C70.8573 18.5905 70.8402 18.6945 70.4631 18.9544C69.1773 19.7861 66.2459 20.306 64.2573 20.0461C60.3659 19.5262 57.3316 16.0087 57.3145 12.0234C57.2973 6.49586 62.7145 2.57982 68.0288 4.2606C69.0402 4.58983 70.3773 5.24828 71.0802 5.7681L71.5773 6.13198L72.7602 4.83241C73.4116 4.12198 73.9259 3.42888 73.8916 3.29026C73.8402 2.90905 71.6288 1.45353 70.3431 0.95103C68.1831 0.0846496 65.2002 -0.227247 63.1602 0.171288Z" fill="white"/>
<path d="M88.9296 0.340571C87.2776 0.77337 86.5298 1.1023 85.156 2.01983C81.8694 4.18383 79.8 8.02708 79.8 12.0261C79.8 19.1933 86.3211 24.8889 93.3465 23.8848C97.92 23.2443 101.537 20.3532 103.137 16.0598C103.832 14.1901 104.006 11.3337 103.537 9.27354C102.789 5.89771 100.285 2.74693 97.1375 1.22348C94.6855 0.011643 91.4511 -0.334596 88.9296 0.340571ZM93.2074 4.1492C96.2332 4.7205 98.7895 7.09223 99.5546 10.0526C100.372 13.238 99.0329 16.7523 96.268 18.5701C94.7029 19.6088 93.3813 19.955 91.4163 19.8685C89.886 19.7992 89.573 19.7127 88.3905 19.1414C83.3823 16.6657 82.3042 10.2949 86.2168 6.38244C88.1297 4.47813 90.6512 3.66447 93.2074 4.1492Z" fill="white"/>
<path d="M118.482 0.170647C110.803 1.82304 106.649 10.0502 109.935 17.0598C111.45 20.2603 114.225 22.6084 117.75 23.6172C119.572 24.139 122.568 24.1216 124.526 23.5998C126.127 23.165 128.255 22.1214 129.464 21.1821L130.315 20.5212L130.366 15.6162L130.4 10.7112H125.973H121.547V12.4505V14.1899H123.93H126.314V16.5206V18.8514L125.258 19.3036C120.968 21.1299 116.422 19.9646 114.242 16.4685C112.165 13.1811 112.608 9.02399 115.281 6.2932C118.124 3.38846 122.449 3.00581 125.956 5.31916C126.552 5.71921 127.08 6.0149 127.165 5.98011C127.233 5.94533 127.795 5.33655 128.425 4.62341L129.566 3.31889L128.834 2.65793C127.999 1.87522 125.82 0.762029 124.356 0.361976C122.96 -0.020683 119.878 -0.125045 118.482 0.170647Z" fill="white"/>
<path d="M144.611 0.322136C140.256 1.38104 136.877 4.69664 135.709 9.01906C135.309 10.512 135.291 13.4109 135.692 14.9212C136.563 18.2368 138.984 21.2746 141.911 22.6981C143.914 23.6875 145.29 24 147.398 24C150.534 24 153.338 22.9237 155.533 20.858C158.285 18.2541 159.4 15.6676 159.4 11.8833C159.383 10.1127 159.313 9.59192 158.93 8.41149C157.85 5.13062 155.759 2.75242 152.624 1.20745C150.22 0.00967193 147.206 -0.320152 144.611 0.322136ZM149.854 4.40153C150.359 4.55777 151.248 5.0091 151.84 5.40836C155.968 8.15111 156.596 13.897 153.147 17.5077C151.439 19.2957 149.488 20.0421 146.98 19.9206C145.221 19.8164 143.949 19.3825 142.712 18.4451C139.577 16.0669 138.566 12.0743 140.221 8.58509C141.946 4.99174 145.987 3.23847 149.854 4.40153Z" fill="white"/>
</svg>
