<svg width="140" height="40" viewBox="0 0 140 40" fill="none" xmlns="http://www.w3.org/2000/svg">
<path fill-rule="evenodd" clip-rule="evenodd" d="M139.213 16.5762C140.205 17.9669 140.305 20.1586 139.252 21.8572C138.312 23.3742 132.687 29.1958 130.857 31.0665C129.27 32.6914 127.129 34.3186 125.021 34.3186H80.8881C74.9236 34.3186 74.5637 32.3368 74.5637 27.8563V9.68098C74.5637 5.10492 75.9418 3.78223 80.0149 3.78223H125.021C127.129 3.78223 129.005 4.83662 131.159 6.98352C132.988 8.80533 138.452 15.5063 139.213 16.5762Z" fill="#33CCCC"/>
<path fill-rule="evenodd" clip-rule="evenodd" d="M139.213 16.5762C140.205 17.9669 140.305 20.1586 139.252 21.8572C138.312 23.3742 132.687 29.1958 130.857 31.0665C129.27 32.6914 127.129 34.3186 125.021 34.3186H80.8881C74.9236 34.3186 74.5637 32.3368 74.5637 27.8563V9.68098C74.5637 5.10492 75.9418 3.78223 80.0149 3.78223H125.021C127.129 3.78223 129.005 4.83662 131.159 6.98352C132.988 8.80533 138.452 15.5063 139.213 16.5762Z" fill="url(#paint0_linear_1581_21924)"/>
<path fill-rule="evenodd" clip-rule="evenodd" d="M84.5687 10.8104V10.6907C84.5687 10.1063 84.5187 9.5287 83.5417 9.5287H79.8534C78.9962 9.5287 78.942 9.99327 78.942 10.7151V15.5184C80.7374 13.0025 82.7281 11.8335 84.5687 10.8104ZM109.312 28.1667V27.9088H109.314V16.348C109.314 11.4998 107.139 9.07595 102.79 9.07645C101.584 9.06535 100.4 9.38276 99.3676 9.99327C98.3322 10.6048 97.3375 11.459 96.3833 12.5559C95.9143 11.3639 95.207 10.486 94.2615 9.92225C93.3158 9.35847 92.0906 9.07654 90.5858 9.07645C88.8441 9.07645 86.8191 9.67441 85.3838 10.8314C85.0627 11.1466 78.9412 15.8684 78.9412 20.7178V28.1193C78.9412 28.3547 78.8253 29.2477 79.8464 29.2477H83.6862C84.8798 29.2477 84.7633 28.4817 84.7633 28.1667V16.1959C85.4114 15.3534 86.7357 13.2727 88.8867 13.2727C89.7123 13.2727 90.3068 13.5465 90.6703 14.0941C91.0338 14.6417 91.2163 15.5599 91.2178 16.8486V26.1984H91.2133V28.1195C91.2133 28.3549 91.0974 29.248 92.1182 29.248H95.9089C97.1034 29.248 96.9868 28.482 96.9868 28.1669V27.909H96.9912V16.1964C97.6856 15.3539 99.0693 13.2732 101.113 13.2732C101.954 13.2732 102.561 13.547 102.933 14.0946C103.305 14.6422 103.491 15.5604 103.491 16.8491V26.1989H103.487V28.12C103.487 28.3554 103.371 29.2485 104.393 29.2485H108.234C109.428 29.248 109.312 28.4817 109.312 28.1667ZM130.458 23.4663C129.093 27.0659 125.822 29.0775 121.77 29.0775C115.901 29.0775 112.023 25.1578 112.023 19.279C112.023 13.4711 116.048 9.26129 121.587 9.26129C127.067 9.26129 130.742 13.001 130.975 19.025C131.005 19.7947 130.776 20.4747 129.794 20.4747H117.34C117.413 23.7049 119.003 25.4473 121.808 25.4473C123.519 25.4473 124.533 24.7244 125.415 23.3076C125.799 22.6911 126.586 22.7254 126.586 22.7254H129.794C130.318 22.725 130.55 23.2265 130.458 23.466V23.4663ZM121.587 12.9987C119.259 12.9987 117.635 14.5954 117.34 17.2099H125.685C125.463 14.923 124.207 12.9987 121.587 12.9987Z" fill="white"/>
<path fill-rule="evenodd" clip-rule="evenodd" d="M22.924 3.94846C22.4307 3.178 21.7907 2.50778 21.039 1.97433C20.2872 1.45675 19.4618 1.05093 18.589 0.770038C17.6196 0.460608 16.6183 0.256757 15.6034 0.162174C14.4423 0.0502803 13.2763 -0.00377856 12.1097 0.000205064H1.88582C0.966479 0.000205064 0.00280922 0.591937 0.00280922 1.70781V17.9544C1.29795 20.6622 3.82081 23.5368 6.68913 24.9107V21.6886C6.68913 19.9884 7.99567 19.6085 8.5361 19.6085H11.5591C15.7231 19.6085 18.9012 18.7515 21.0935 17.0377C23.2858 15.3263 24.3819 12.7842 24.3819 9.41136C24.3881 8.43679 24.2727 7.46514 24.0385 6.518C23.8055 5.60992 23.4295 4.74299 22.924 3.94846ZM16.9662 12.2923C16.6133 12.8927 16.0867 13.3772 15.4532 13.6849C14.7666 14.0059 14.0248 14.1985 13.2661 14.2527C12.4398 14.3249 11.5865 14.3611 10.7062 14.3612H7.83351C7.13078 14.3612 6.68913 13.8006 6.68913 12.9736V6.33126C6.68913 5.58633 7.18471 5.27382 7.77893 5.27382H10.7062C11.6598 5.27382 12.554 5.30079 13.389 5.35474C14.1404 5.38833 14.8784 5.56294 15.5629 5.86911C16.1729 6.15369 16.6778 6.61677 17.008 7.19446C17.3559 7.78857 17.5299 8.627 17.5301 9.70976C17.5301 10.8091 17.3422 11.67 16.9662 12.2923ZM6.68913 25.9607C3.53445 24.7254 1.41954 23.2518 0.00280922 21.7909V29.634C0.00280922 29.634 -0.113859 30.9131 1.15652 30.9131H5.61696C6.84054 30.9131 6.68965 29.634 6.68965 29.634V25.9607H6.68913ZM69.9024 8.54701H65.8993C65.0857 8.54701 64.5497 8.88213 64.227 9.75893C63.9044 10.6357 59.6613 22.2166 59.6613 22.2166C59.6613 22.2166 55.6025 10.8749 55.2831 9.99673C54.9637 9.11854 54.4392 8.54701 53.4942 8.54701H49.8159C48.5183 8.54701 48.5183 9.54589 48.6792 9.94198C48.8097 10.2621 53.8469 23.7922 55.7654 28.9465C56.2178 30.1635 56.3965 30.5296 56.4105 30.9805C56.4245 31.4313 55.9568 32.3779 55.6336 32.9211C55.4852 33.1689 55.3147 33.4037 55.1243 33.6223C58.8854 32.5187 63.2203 28.5143 65.462 24.1762C67.6787 18.1305 70.6019 10.1441 70.7286 9.73555C70.9325 9.07382 70.9305 8.54701 69.9024 8.54701ZM52.2261 34.7727C51.8786 34.7668 51.5317 34.7422 51.187 34.6992C50.7651 34.6444 49.9755 34.7217 49.9755 35.3993V38.4283C49.9755 39.5843 50.5395 39.6614 50.85 39.7299C51.7841 39.9207 52.7368 40.0109 53.691 39.999C54.9556 39.999 56.0559 39.7735 56.9921 39.3226C57.9374 38.8641 58.7797 38.2252 59.4695 37.4431C60.23 36.5724 60.8727 35.6091 61.3817 34.5772C61.9405 33.4685 62.4769 32.247 62.991 30.9129C62.991 30.9129 63.2114 30.31 63.5743 29.3223C62.4702 30.4147 57.2658 35.251 52.2261 34.7727ZM46.2145 12.1427C45.9973 11.6365 45.7006 11.1666 45.3351 10.7503C44.971 10.3507 44.5542 10.0003 44.0957 9.70862C43.6009 9.39338 43.0761 9.12615 42.5285 8.91071C41.9693 8.69672 41.3943 8.52513 40.8083 8.39749C40.1422 8.25452 39.4663 8.15963 38.7861 8.11356C38.0515 8.05996 37.2257 8.03293 36.3089 8.03252C30.2445 8.03252 26.7914 9.91082 25.9495 13.6675C25.6757 14.8331 26.8524 14.9016 26.8524 14.9016H30.583C31.5569 14.9016 31.515 14.5941 31.9876 13.731C32.1579 13.2613 32.4642 12.8505 32.8691 12.5489C33.5851 12.0084 34.6582 11.7381 36.0885 11.738C37.4646 11.738 38.4644 11.9992 39.0879 12.5214C39.7113 13.0437 40.0781 13.8371 40.1886 14.9016C40.1886 16.136 39.7957 16.9596 38.273 16.9596C34.5608 16.8275 30.5717 17.2391 28.3249 18.5014C26.0782 19.7638 24.8081 22.2317 24.8081 24.882C24.8081 25.9631 25.0053 26.9096 25.3998 27.7218C25.7821 28.5179 26.3473 29.2167 27.0511 29.7632C27.7979 30.334 28.6538 30.7524 29.5684 30.9938C30.6079 31.2732 31.6818 31.41 32.7597 31.4003C34.3743 31.4003 35.8007 31.2019 37.0391 30.805C38.2772 30.4089 40.1931 29.1028 40.4371 28.9122V29.6085C40.4371 30.2984 40.6513 30.9138 41.4915 30.9138H45.8297C46.7078 30.9138 46.903 30.2984 46.903 29.5412V16.4437C46.9107 15.6295 46.8556 14.816 46.7383 14.01C46.6452 13.3683 46.4691 12.7409 46.2145 12.1427ZM40.2989 24.9843C40.2989 24.9843 39.1786 27.2647 35.1806 27.2647C34.0805 27.2647 33.1863 27.0214 32.4979 26.5349C31.8093 26.0483 31.4652 25.2909 31.4658 24.263C31.4658 22.9278 32.0254 21.9854 33.1449 21.4357C34.2632 20.8864 36.5023 20.5726 38.1801 20.6111C39.8579 20.6496 40.2989 21.6886 40.2989 22.406V24.9848V24.9843Z" fill="#333333"/>
<defs>
<linearGradient id="paint0_linear_1581_21924" x1="161.621" y1="12.5991" x2="153.384" y2="63.3686" gradientUnits="userSpaceOnUse">
<stop offset="0.47231" stop-color="#00CCCC"/>
<stop offset="1" stop-color="#3399FF"/>
</linearGradient>
</defs>
</svg>
