<svg width="28" height="20" viewBox="0 0 28 20" fill="none" xmlns="http://www.w3.org/2000/svg">
<rect width="28" height="20" rx="2" fill="white"/>
<mask id="mask0_1737_24513" style="mask-type:alpha" maskUnits="userSpaceOnUse" x="0" y="0" width="28" height="20">
<rect width="28" height="20" rx="2" fill="white"/>
</mask>
<g mask="url(#mask0_1737_24513)">
<path fill-rule="evenodd" clip-rule="evenodd" d="M28 0H0V1.33333H28V0ZM28 2.66667H0V4H28V2.66667ZM0 5.33333H28V6.66667H0V5.33333ZM28 8H0V9.33333H28V8ZM0 10.6667H28V12H0V10.6667ZM28 13.3333H0V14.6667H28V13.3333ZM0 16H28V17.3333H0V16ZM28 18.6667H0V20H28V18.6667Z" fill="#D02F44"/>
<rect width="12" height="9.33333" fill="#46467F"/>
<g filter="url(#filter0_d_1737_24513)">
<path fill-rule="evenodd" clip-rule="evenodd" d="M2.66683 1.9987C2.66683 2.36689 2.36835 2.66536 2.00016 2.66536C1.63197 2.66536 1.3335 2.36689 1.3335 1.9987C1.3335 1.63051 1.63197 1.33203 2.00016 1.33203C2.36835 1.33203 2.66683 1.63051 2.66683 1.9987ZM5.3335 1.9987C5.3335 2.36689 5.03502 2.66536 4.66683 2.66536C4.29864 2.66536 4.00016 2.36689 4.00016 1.9987C4.00016 1.63051 4.29864 1.33203 4.66683 1.33203C5.03502 1.33203 5.3335 1.63051 5.3335 1.9987ZM7.3335 2.66536C7.70169 2.66536 8.00016 2.36689 8.00016 1.9987C8.00016 1.63051 7.70169 1.33203 7.3335 1.33203C6.96531 1.33203 6.66683 1.63051 6.66683 1.9987C6.66683 2.36689 6.96531 2.66536 7.3335 2.66536ZM10.6668 1.9987C10.6668 2.36689 10.3684 2.66536 10.0002 2.66536C9.63197 2.66536 9.3335 2.36689 9.3335 1.9987C9.3335 1.63051 9.63197 1.33203 10.0002 1.33203C10.3684 1.33203 10.6668 1.63051 10.6668 1.9987ZM3.3335 3.9987C3.70169 3.9987 4.00016 3.70022 4.00016 3.33203C4.00016 2.96384 3.70169 2.66536 3.3335 2.66536C2.96531 2.66536 2.66683 2.96384 2.66683 3.33203C2.66683 3.70022 2.96531 3.9987 3.3335 3.9987ZM6.66683 3.33203C6.66683 3.70022 6.36835 3.9987 6.00016 3.9987C5.63197 3.9987 5.3335 3.70022 5.3335 3.33203C5.3335 2.96384 5.63197 2.66536 6.00016 2.66536C6.36835 2.66536 6.66683 2.96384 6.66683 3.33203ZM8.66683 3.9987C9.03502 3.9987 9.3335 3.70022 9.3335 3.33203C9.3335 2.96384 9.03502 2.66536 8.66683 2.66536C8.29864 2.66536 8.00016 2.96384 8.00016 3.33203C8.00016 3.70022 8.29864 3.9987 8.66683 3.9987ZM10.6668 4.66536C10.6668 5.03355 10.3684 5.33203 10.0002 5.33203C9.63197 5.33203 9.3335 5.03355 9.3335 4.66536C9.3335 4.29717 9.63197 3.9987 10.0002 3.9987C10.3684 3.9987 10.6668 4.29717 10.6668 4.66536ZM7.3335 5.33203C7.70169 5.33203 8.00016 5.03355 8.00016 4.66536C8.00016 4.29717 7.70169 3.9987 7.3335 3.9987C6.96531 3.9987 6.66683 4.29717 6.66683 4.66536C6.66683 5.03355 6.96531 5.33203 7.3335 5.33203ZM5.3335 4.66536C5.3335 5.03355 5.03502 5.33203 4.66683 5.33203C4.29864 5.33203 4.00016 5.03355 4.00016 4.66536C4.00016 4.29717 4.29864 3.9987 4.66683 3.9987C5.03502 3.9987 5.3335 4.29717 5.3335 4.66536ZM2.00016 5.33203C2.36835 5.33203 2.66683 5.03355 2.66683 4.66536C2.66683 4.29717 2.36835 3.9987 2.00016 3.9987C1.63197 3.9987 1.3335 4.29717 1.3335 4.66536C1.3335 5.03355 1.63197 5.33203 2.00016 5.33203ZM4.00016 5.9987C4.00016 6.36689 3.70169 6.66536 3.3335 6.66536C2.96531 6.66536 2.66683 6.36689 2.66683 5.9987C2.66683 5.63051 2.96531 5.33203 3.3335 5.33203C3.70169 5.33203 4.00016 5.63051 4.00016 5.9987ZM6.00016 6.66536C6.36835 6.66536 6.66683 6.36689 6.66683 5.9987C6.66683 5.63051 6.36835 5.33203 6.00016 5.33203C5.63197 5.33203 5.3335 5.63051 5.3335 5.9987C5.3335 6.36689 5.63197 6.66536 6.00016 6.66536ZM9.3335 5.9987C9.3335 6.36689 9.03502 6.66536 8.66683 6.66536C8.29864 6.66536 8.00016 6.36689 8.00016 5.9987C8.00016 5.63051 8.29864 5.33203 8.66683 5.33203C9.03502 5.33203 9.3335 5.63051 9.3335 5.9987ZM10.0002 7.9987C10.3684 7.9987 10.6668 7.70022 10.6668 7.33203C10.6668 6.96384 10.3684 6.66536 10.0002 6.66536C9.63197 6.66536 9.3335 6.96384 9.3335 7.33203C9.3335 7.70022 9.63197 7.9987 10.0002 7.9987ZM8.00016 7.33203C8.00016 7.70022 7.70169 7.9987 7.3335 7.9987C6.96531 7.9987 6.66683 7.70022 6.66683 7.33203C6.66683 6.96384 6.96531 6.66536 7.3335 6.66536C7.70169 6.66536 8.00016 6.96384 8.00016 7.33203ZM4.66683 7.9987C5.03502 7.9987 5.3335 7.70022 5.3335 7.33203C5.3335 6.96384 5.03502 6.66536 4.66683 6.66536C4.29864 6.66536 4.00016 6.96384 4.00016 7.33203C4.00016 7.70022 4.29864 7.9987 4.66683 7.9987ZM2.66683 7.33203C2.66683 7.70022 2.36835 7.9987 2.00016 7.9987C1.63197 7.9987 1.3335 7.70022 1.3335 7.33203C1.3335 6.96384 1.63197 6.66536 2.00016 6.66536C2.36835 6.66536 2.66683 6.96384 2.66683 7.33203Z" fill="url(#paint0_linear_1737_24513)"/>
</g>
</g>
<defs>
<filter id="filter0_d_1737_24513" x="1.3335" y="1.33203" width="9.3335" height="7.66797" filterUnits="userSpaceOnUse" color-interpolation-filters="sRGB">
<feFlood flood-opacity="0" result="BackgroundImageFix"/>
<feColorMatrix in="SourceAlpha" type="matrix" values="0 0 0 0 0 0 0 0 0 0 0 0 0 0 0 0 0 0 127 0" result="hardAlpha"/>
<feOffset dy="1"/>
<feColorMatrix type="matrix" values="0 0 0 0 0 0 0 0 0 0 0 0 0 0 0 0 0 0 0.06 0"/>
<feBlend mode="normal" in2="BackgroundImageFix" result="effect1_dropShadow_1737_24513"/>
<feBlend mode="normal" in="SourceGraphic" in2="effect1_dropShadow_1737_24513" result="shape"/>
</filter>
<linearGradient id="paint0_linear_1737_24513" x1="1.3335" y1="1.33203" x2="1.3335" y2="7.9987" gradientUnits="userSpaceOnUse">
<stop stop-color="white"/>
<stop offset="1" stop-color="#F0F0F0"/>
</linearGradient>
</defs>
</svg>
